<svg id="Layer_1" enable-background="new 0 0 511.996 511.996" height="512" viewBox="0 0 511.996 511.996" width="512" xmlns="http://www.w3.org/2000/svg"><g><g><path d="m125.308 185.255v-52.052h-9.896c-2.41 0-4.717-.422-6.875-1.164-10 4.496-17.68 15.893-17.68 27.331 0 16.358 16.161 29.777 34.498 27.764-.018-.627-.047-1.251-.047-1.879z" fill="#feb983"/><path d="m282.276 130.439c-2.281 1.725-5.107 2.764-8.171 2.764-1.838 0-4.631-.197-6.364-.564v52.616c0 .634-.031 1.26-.048 1.889 18.32 1.948 34.5-11.468 34.5-27.87 0-12.435-8.097-25.096-19.917-28.835z" fill="#feb983"/><path d="m125.308 180.782c-6.804-5.16-11.202-12.884-11.202-21.412 0-8.798 4.553-17.559 11.202-23.186v-2.981h-9.896c-2.41 0-4.717-.422-6.875-1.164-10 4.496-17.68 15.893-17.68 27.331 0 16.358 16.161 29.777 34.498 27.764-.017-.626-.046-1.251-.046-1.879v-4.473z" fill="#f9a973"/><path d="m290.991 135.301c-2.575-2.152-5.501-3.846-8.715-4.863-2.281 1.726-5.107 2.764-8.171 2.764-1.838 0-4.632-.197-6.364-.564v52.616c0 .634-.031 1.26-.048 1.889 8.772.933 17.048-1.663 23.298-6.417z" fill="#f9a973"/><path d="m153.492 274.373 43.032 42.472 42.646-42.634c-1.688-1.339-2.726-3.397-2.732-5.636l-.02-32.725c-25.374 16.604-57.481 14.36-79.851-.106v32.788c.001 2.972-1.429 4.724-3.075 5.841z" fill="#feb983"/><path d="m196.331 247.451c-14.332-.118-28.322-4.309-39.764-11.708v32.788c0 2.973-1.429 4.725-3.075 5.842l42.839 42.281z" fill="#f9a973"/><path d="m248.144 105.242c0-1.391-1.863-1.871-2.519-.644-8.464 15.83-25.143 26.604-44.349 26.604h-76.969v54.052c0 37.205 29.151 71.186 73.247 71.186 39.253 0 71.187-31.934 71.187-71.186v-54.616c-11.727-2.489-20.597-12.956-20.597-25.396z" fill="#fcd0a3"/><g><g><path d="m166.954 185.255v-54.052h-42.646v54.052c0 37.205 29.151 71.185 73.247 71.185 7.179 0 14.109-1.078 20.647-3.064-31.525-9.132-51.248-37.528-51.248-68.121z" fill="#feb983"/></g></g><path d="m341.916 314.35c-3.047-1.18-40.097-15.529-68.461-26.514l-46.96 46.959c-3.902 3.902-10.286 3.902-14.188 0l-12.857-12.856c-1.486-1.486-2.402-3.333-2.756-5.265l-.17.17-.17-.168c-.354 1.931-1.271 3.777-2.756 5.263l-12.857 12.856c-3.902 3.902-10.286 3.902-14.188 0l-47.121-47.121-68.298 26.676c-16.69 6.869-39.039 28.481-39.039 60.552v68.627l63.115 1.469.962 52.464h240.58l1.086-52.464 30.926-.804-3-128.071c-1.267-.646-2.55-1.239-3.848-1.773z" fill="#cbe2ff"/><g><g><path d="m236.432 324.859v62.557h34.804v-97.361z" fill="#eeebee"/></g></g><g><g><path d="m121.763 290.006v97.41h34.805v-62.606z" fill="#eeebee"/></g></g><path d="m253.834 307.457-17.402 17.402v62.557h17.402z" fill="#d6d4d6"/><path d="m121.763 290.006v97.41h17.403v-80.008z" fill="#d6d4d6"/><g><g><path d="m49.595 355.735c0-21.683 10.218-38.576 21.994-49.374l-20.455 7.989c-16.69 6.869-39.039 28.481-39.039 60.552v68.627l37.5.873c0-41.315 0-84.765 0-88.667z" fill="#9dc6fb"/></g></g><path d="m317.839 444.998-1.234 59.582h51.34c7.185 0 13.009-5.824 13.009-13.009 0-1.288 0-11.065 0-20.76h-13.246c-10.462 0-18.943-8.481-18.943-18.943v-7.675z" fill="#feb983"/><path d="m353.823 464.724c-3.13-3.379-5.058-7.886-5.058-12.855v-7.675l-30.926.804-1.234 59.582h37.219v-39.856z" fill="#f9a973"/><path d="m75.21 444.998-63.115-1.469v48.042c0 7.185 5.824 13.009 13.009 13.009h51.199z" fill="#feb983"/><path d="m49.595 444.402-37.5-.873v48.042c0 7.185 5.824 13.009 13.009 13.009h24.491c0-14.471 0-36.983 0-60.178z" fill="#f9a973"/><path d="m316.777 444.998c-25.152 0-45.541-20.389-45.541-45.541v-14.041h-149.473v14.041c0 25.152-20.389 45.541-45.541 45.541h-1.012v59.582h242.628v-59.582z" fill="#d09080"/><path d="m156.568 385.416h-34.804v14.041c0 25.152-20.389 45.541-45.541 45.541h-1.013v59.582h81.357v-119.164z" fill="#be694f"/><g fill="#9cc5fa"><path d="m166.553 336.796c3.902 3.902 10.286 3.902 14.188 0l12.857-12.856c3.902-3.902 3.902-10.286 0-14.188l-37.834-37.834c-.571 1.061-1.386 1.855-2.271 2.456l-35.498 13.864z"/><path d="m199.451 323.939 12.857 12.856c3.902 3.902 10.286 3.902 14.188 0l48.401-48.401c-17.498-6.776-32.026-12.403-33.845-13.107-1.657-.641-2.97-1.859-3.767-3.369l-37.833 37.833c-3.903 3.902-3.903 10.287-.001 14.188z"/><path d="m320.944 411.331c-1.715 0-3.105 1.39-3.105 3.105v30.562h30.926v-33.667z"/><path d="m72.105 411.331h-60.01v33.667h63.115v-30.562c0-1.715-1.39-3.105-3.105-3.105z"/></g><path d="m49.595 411.331h-37.5v33.667h37.5c0-11.335 0-22.842 0-33.667z" fill="#7fb3fa"/><path d="m242.324 499.631h.001c4.616-14.094 2.716-29.722-6.651-42.822-.835-1.168-32.716-45.757-34.596-48.386-2.232-3.122-6.872-3.122-9.104 0l-34.598 48.386c-10.832 15.148-11.357 33.103-4.723 47.771h87.744c.729-1.613 1.375-3.265 1.927-4.949z" fill="#b3e59f"/><path d="m187.535 456.809 24.07-33.662c-5.458-7.633-9.864-13.795-10.528-14.724-2.232-3.122-6.872-3.122-9.104 0l-34.598 48.386c-10.832 15.148-11.357 33.103-4.723 47.771h30.16c-6.633-14.668-6.108-32.622 4.723-47.771z" fill="#95d6a4"/><path d="m499.913 238.827v-22.225c0-10.461-8.481-18.943-18.943-18.943h-116.262c-10.462 0-18.943 8.481-18.943 18.943v22.225z" fill="#365e7d"/><path d="m392.634 197.66h-27.926c-10.462 0-18.943 8.481-18.943 18.943v22.225h27.926v-22.225c0-10.462 8.481-18.943 18.943-18.943z" fill="#294b64"/><path d="m345.765 416.32v38.548c0 10.462 8.481 18.943 18.943 18.943h116.262c10.462 0 18.943-8.481 18.943-18.943v-38.548z" fill="#365e7d"/><path d="m373.691 454.868v-38.548h-27.926v38.548c0 10.462 8.481 18.943 18.943 18.943h27.926c-10.462 0-18.943-8.481-18.943-18.943z" fill="#294b64"/><path d="m345.765 262.416h154.149v155.757h-154.149z" fill="#b3e59f"/><path d="m345.765 262.416h27.926v155.757h-27.926z" fill="#95d6a4"/><path d="m345.765 236.975h31.032v27.868h-31.032z" fill="#f87c68"/><circle cx="422.839" cy="340.508" fill="#f9f7f9" r="41.792"/><path d="m409.138 340.508c0-18.152 11.576-33.595 27.746-39.365-4.39-1.567-9.117-2.426-14.045-2.426-23.081 0-41.792 18.711-41.792 41.792s18.711 41.792 41.792 41.792c4.929 0 9.655-.86 14.045-2.426-16.17-5.772-27.746-21.215-27.746-39.367z" fill="#eeebee"/><path d="m373.691 236.975h126.222v27.868h-126.222z" fill="#cbe2ff"/><path d="m264.116 40.497c-6.802.523-13.042-3.754-14.352-10.449-2.205-11.275-7.787-22.464-29.593-22.464h-75.654c-27.766 0-50.275 22.509-50.275 50.275v55.175c0 11.691 9.477 21.168 21.168 21.168h85.865c19.206 0 35.885-10.774 44.349-26.605.656-1.227 2.519-.748 2.519.644 0 14.279 11.682 25.961 25.961 25.961 7.484 0 13.608-6.124 13.608-13.608v-57.577c.001-13.565-11.833-23.424-23.596-22.52z" fill="#d09080"/><g><g><g><path d="m138.975 113.034v-55.175c0-27.766 22.509-50.274 50.275-50.274h-44.732c-27.766 0-50.275 22.509-50.275 50.274v55.176c0 11.691 9.478 21.168 21.168 21.168h44.732c-11.69 0-21.168-9.478-21.168-21.169z" fill="#be694f"/></g></g></g></g><g><path d="m25.098 511.996h342.841c11.309 0 20.509-9.2 20.509-20.509v-10.26h92.517c14.581 0 26.443-11.862 26.443-26.442 0-25.237 0-211.154 0-238.266 0-14.581-11.862-26.443-26.443-26.443h-40.631c-4.143 0-7.5 3.358-7.5 7.5s3.357 7.5 7.5 7.5h40.631c6.31 0 11.443 5.133 11.443 11.443v12.873c-7.561 0-133.795 0-139.148 0v-12.873c0-6.31 5.133-11.443 11.442-11.443h40.632c4.143 0 7.5-3.358 7.5-7.5s-3.357-7.5-7.5-7.5h-40.632c-14.58 0-26.442 11.862-26.442 26.443v88.291c-21.48-8.32-88.704-34.354-94.327-36.531l-.016-19.59c17.179-12.574 29.077-31.932 31.736-54.099 19.515-1.711 34.036-17.268 34.036-35.4 0-12.417-6.298-23.904-16.102-30.579 1.042-2.496 1.622-5.231 1.622-8.101v-14.7c0-4.142-3.357-7.5-7.5-7.5s-7.5 3.358-7.5 7.5v14.701c0 11.739-24.569 5.815-24.569-12.353 0-4.063-2.754-7.592-6.696-8.58-3.972-.996-8.044.864-9.937 4.4-7.467 13.965-21.926 22.641-37.734 22.641-92.108 0-86.07.03-87.098-.063-7.02-.665-12.436-6.532-12.436-13.605v-55.177c0-23.586 19.188-42.774 42.774-42.774h75.654c17.57 0 20.542 7.759 22.232 16.404 1.999 10.223 11.574 17.308 22.288 16.487 7.505-.586 15.521 5.928 15.521 15.042v7.877c0 4.142 3.357 7.5 7.5 7.5s7.5-3.358 7.5-7.5v-7.877c0-18.043-15.639-31.229-31.672-29.998-3.17.255-5.869-1.611-6.417-4.41-3.753-19.194-15.841-28.525-36.954-28.525h-75.654c-31.857 0-57.774 25.917-57.774 57.774v55.176c0 7.854 3.177 14.979 8.311 20.162-7.256 6.847-11.698 16.362-11.698 26.173 0 9.716 4.278 19.124 11.738 25.809 6.137 5.5 13.985 8.796 22.293 9.504 2.587 21.769 14.057 41.241 31.68 54.002l.001 19.365-100.664 39.315c-.042.017-.084.034-.126.051-21.039 8.658-43.684 33.47-43.684 67.487v116.669c.001 11.309 9.201 20.509 20.51 20.509zm251.136-370.485c1-.158 3.584-.398 6.654-1.824 6.983 3.552 11.798 11.295 11.798 19.503 0 10.254-8.151 18.514-18.452 20.221zm-159.432 37.918c-4.387-.71-8.459-2.598-11.702-5.505-4.353-3.901-6.75-9.1-6.75-14.639 0-7.176 4.422-14.39 11.003-18.316 3.212.694 5.483.649 7.449.649zm118.458 317.567h-23.372l12.875-7.621c3.564-2.11 4.744-6.71 2.634-10.274-2.109-3.564-6.71-4.743-10.274-2.634l-13.103 7.755v-13.194l10.266-6.076c3.564-2.11 4.744-6.71 2.634-10.274-2.109-3.564-6.71-4.743-10.274-2.634l-2.625 1.554v-17.768c0-4.142-3.357-7.5-7.5-7.5s-7.5 3.358-7.5 7.5v17.769l-2.626-1.554c-3.565-2.109-8.165-.93-10.274 2.634-2.11 3.564-.931 8.164 2.634 10.274l10.267 6.076v13.195l-13.104-7.756c-3.565-2.109-8.164-.93-10.274 2.634-2.11 3.565-.931 8.165 2.634 10.274l12.875 7.621h-23.372c-3.917-12.161-1.904-25.285 5.691-35.909l33.049-46.22 33.049 46.219c7.561 10.58 9.63 23.655 5.69 35.909zm145.925-252.605h111.223v12.869h-111.223zm-27.926 0h12.926v12.869h-12.926zm0 27.868h139.148v138.329h-139.148c0-5.227 0-133.112 0-138.329zm0 153.329h139.148v29.196c0 6.31-5.134 11.442-11.443 11.442h-116.263c-6.308 0-11.442-5.131-11.442-11.442 0-16.556 0-2.709 0-29.196zm11.442 55.639h8.746v10.26c0 3.038-2.472 5.509-5.509 5.509h-42.606v-44.583h12.927v2.371c0 14.579 11.86 26.443 26.442 26.443zm-39.369-43.813v-18.667h12.927v18.667zm-46.603-139.574c25.059 9.705 53.536 20.734 59.529 23.055v82.852h-12.927v-18.416c0-4.142-3.357-7.5-7.5-7.5s-7.5 3.358-7.5 7.5v51.526c-17.918-3.069-31.603-18.704-31.603-37.485.001-10.19.001-88.905.001-101.532zm-17.282-6.693c-5.041 5.041-29.502 29.503-40.26 40.261-.975.974-2.607.975-3.582 0l-12.856-12.856c-.969-.97-.969-2.613 0-3.583l33.011-33.011c.49.216 23.185 8.995 23.687 9.189zm2.282 18.932v67.753h-19.804v-47.949zm-56.732 31.936c5.985 5.985 15.178 6.694 21.929 2.312v33.505h-64.864v-33.534c6.734 4.404 15.963 3.73 21.978-2.282l10.479-10.479zm-42.994-72.544c.022-.341.059-.677.059-1.025v-11.309c19.962 8.626 44.061 9.255 64.861.174l.009 11.201c.001.343.018.682.041 1.019l-32.455 32.455zm-32.201-84.301v-43.552h69.469c15.819 0 31.47-6.511 42.717-18.875 3.523 7.245 9.595 13.019 17.032 16.191.072.031.143.066.215.096v46.139c0 35.077-28.617 63.686-63.687 63.686-39.733.001-65.746-30.908-65.746-63.685zm23.246 96.561 33.24 33.239c.969.97.969 2.613 0 3.583l-12.855 12.856c-.969.968-2.605.977-3.582.001-50.659-50.66-36.195-36.195-40.444-40.445zm-25.791 28.298 19.805 19.805v47.998h-19.805zm0 82.803h134.473v6.541c0 27.067 20.382 49.464 46.603 52.652v44.971h-59.548c3.568-15.444.403-31.461-9.014-44.633l-34.598-48.387c-2.453-3.43-6.436-5.479-10.653-5.479s-8.199 2.048-10.652 5.479l-34.598 48.386c-9.461 13.23-12.591 29.299-9.043 44.633h-59.523v-44.977c26.198-3.209 46.553-25.595 46.553-52.646zm-109.668-18.015c0-28.91 20.507-47.871 34.331-53.59l60.337-23.565v101.71c0 18.763-13.659 34.386-31.553 37.476 0-11.688 0-42.662 0-51.517 0-4.142-3.357-7.5-7.5-7.5s-7.5 3.358-7.5 7.5v18.416h-48.115zm0 43.93h48.115v18.667h-48.115zm0 33.667h48.115v44.583h-42.606c-3.037 0-5.509-2.472-5.509-5.509z"/><path d="m422.833 291.132c-27.18 0-49.292 22.112-49.292 49.292s22.112 49.292 49.292 49.292c27.179 0 49.291-22.112 49.291-49.292s-22.112-49.292-49.291-49.292zm0 83.583c-18.908 0-34.292-15.383-34.292-34.292 0-18.908 15.384-34.292 34.292-34.292s34.291 15.383 34.291 34.292-15.383 34.292-34.291 34.292z"/><path d="m434.271 326.167-14.966 14.966-7.496-7.495c-2.928-2.929-7.677-2.928-10.606 0-2.929 2.929-2.929 7.678.001 10.607l12.799 12.798c1.464 1.464 3.384 2.196 5.303 2.196s3.839-.732 5.304-2.197l20.27-20.27c2.929-2.929 2.929-7.678 0-10.606-2.931-2.928-7.679-2.928-10.609.001z"/><g><path d="m423.894 452.846h-2.037c-4.142 0-7.5-3.358-7.5-7.5s3.358-7.5 7.5-7.5h2.037c4.142 0 7.5 3.358 7.5 7.5s-3.358 7.5-7.5 7.5z"/></g></g></g></svg>