<svg xmlns="http://www.w3.org/2000/svg" viewBox="0 0 442.05 439.55"><defs><style>.cls-1{fill:#edf5f2;}.cls-2,.cls-20{fill:#a0cdbc;}.cls-3{fill:#413b73;}.cls-11,.cls-12,.cls-13,.cls-14,.cls-16,.cls-17,.cls-18,.cls-19,.cls-20,.cls-21,.cls-22,.cls-23,.cls-24,.cls-25,.cls-26,.cls-27,.cls-28,.cls-29,.cls-3,.cls-30,.cls-31,.cls-32,.cls-33,.cls-34,.cls-4,.cls-5,.cls-6,.cls-7,.cls-8,.cls-9{fill-rule:evenodd;}.cls-15,.cls-4{fill:#30295e;}.cls-35,.cls-5{fill:#fff;}.cls-6{fill:#875371;}.cls-7{fill:#d08174;}.cls-8{fill:#ecbd78;}.cls-9{fill:#be7775;}.cls-10,.cls-12{fill:#e9baa8;}.cls-11{fill:#d58881;}.cls-13{fill:#dc9c8d;}.cls-14{fill:#c35a5a;}.cls-16{fill:#f1d3c8;}.cls-17,.cls-18,.cls-23,.cls-24,.cls-25,.cls-30,.cls-31,.cls-32{fill:none;stroke-linecap:round;stroke-linejoin:round;}.cls-17,.cls-25{stroke:#663b55;}.cls-17,.cls-18,.cls-24,.cls-30,.cls-32{stroke-width:1.42px;}.cls-18,.cls-23{stroke:#30295e;}.cls-19{fill:#789eae;}.cls-21{fill:#6181a4;}.cls-22{fill:#839fd1;}.cls-23{stroke-width:0.71px;}.cls-24{stroke:#875371;}.cls-25,.cls-31{stroke-width:2.13px;}.cls-26{fill:#663b55;}.cls-27{fill:#ca8874;}.cls-28{fill:#ba7369;}.cls-29{fill:#dba376;}.cls-30{stroke:#be7775;}.cls-31{stroke:#413b73;stroke-dasharray:2.13 6.38;}.cls-32{stroke:#e4f0ec;}.cls-33{fill:#b5c7e6;}.cls-34{fill:#12131f;}</style></defs><g id="Layer_2" data-name="Layer 2"><g id="OBJECTS"><circle class="cls-1" cx="222.56" cy="219" r="175.78" transform="translate(-89.67 221.52) rotate(-45)"/><circle class="cls-2" cx="219.54" cy="218.97" r="108" transform="translate(-66.45 338.77) rotate(-67.66)"/><path class="cls-3" d="M108.86,387.43c-4.3-6.45-9.25-13.7-10.21-14.55a9.62,9.62,0,0,0-6.7-2.32H70.26c-2.34,0-4-.49-5.42-2l-.1-.1c-1.57-1.76-2.95-4.84-4.51-9.82l-.14-.43q-2.28-7.32-4.58-14.64H51.33q2.49,7.92,5,15.82l.14.44c1.73,5.53,3.37,9.06,5.37,11.3l.11.12a9.62,9.62,0,0,0,3.1,2.31V395.3a52.43,52.43,0,0,0,.81,11.2c.91,3.86,2.78,6.43,6.47,6.43,6.09,0,8.82-9.1,9.22-10.54l.06-.19,10.22-27.65H92A5.83,5.83,0,0,1,96,375.88c.59.51,4.33,6,8,11.55ZM69,374.51c.41,0,.82,0,1.26,0H87.67l-10,26.67,0,.15c-.3,1.09-2.19,7.57-5.38,7.57-1.34,0-2.11-1.34-2.59-3.34a49.77,49.77,0,0,1-.7-10.3Z"/><path class="cls-3" d="M61.34,343.58q-3-9.43-5.94-18.87a29.63,29.63,0,0,0-3.53-7.87,9.78,9.78,0,0,0-6.09-4.4,26.4,26.4,0,0,0-6.43-.22c-.78,0-1.55.06-2.43.06a2,2,0,1,0,0,4c.7,0,1.64,0,2.6-.08a23.52,23.52,0,0,1,5.44.14,6.09,6.09,0,0,1,3.64,2.77,25.87,25.87,0,0,1,3,6.79q2.79,8.85,5.56,17.69Z"/><path class="cls-4" d="M99.51,391.22a22.21,22.21,0,0,0,0,18.29v5.36h6.87c4.88,0,8.83-6.49,8.83-14.51s-3.95-14.51-8.83-14.51H99.51Z"/><path class="cls-3" d="M99.51,414.87c4.87,0,8.84-6.51,8.84-14.51s-4-14.51-8.84-14.51-8.83,6.52-8.83,14.51S94.65,414.87,99.51,414.87Z"/><path class="cls-5" d="M99.51,407.82c2.51,0,4.55-3.35,4.55-7.46s-2-7.45-4.55-7.45S95,396.26,95,400.36,97,407.82,99.51,407.82Z"/><path class="cls-6" d="M96.85,399.46a2,2,0,0,0,3.57-1.76c-.54-1.1-15.15-23.3-16.88-24.82a9.61,9.61,0,0,0-6.69-2.32H55.15c-2.34,0-4-.49-5.42-2l-.1-.1c-1.57-1.76-3-4.84-4.51-9.82l-.13-.43q-5.27-16.77-10.52-33.51a30.28,30.28,0,0,0-3.53-7.87,9.83,9.83,0,0,0-6.1-4.4,26.36,26.36,0,0,0-6.43-.22c-.78,0-1.55.06-2.43.06a2,2,0,1,0,0,4c.7,0,1.64,0,2.6-.08a23.63,23.63,0,0,1,5.45.14,6.09,6.09,0,0,1,3.63,2.77,25.87,25.87,0,0,1,3,6.79q5.28,16.74,10.52,33.51l.14.44c1.73,5.53,3.37,9.06,5.38,11.3l.1.12a9.62,9.62,0,0,0,3.1,2.31V395.3a52.43,52.43,0,0,0,.81,11.2c.91,3.86,2.79,6.43,6.48,6.43,6.08,0,8.82-9.1,9.21-10.54l.06-.19,10.22-27.65h.17a5.82,5.82,0,0,1,4.07,1.33c1.2,1.05,15.54,22.78,15.93,23.58Zm-43-24.95c.41,0,.83,0,1.26,0H72.56l-10,26.67,0,.15c-.29,1.09-2.18,7.57-5.37,7.57-1.35,0-2.12-1.34-2.6-3.34a49.77,49.77,0,0,1-.7-10.3Z"/><path class="cls-6" d="M101.37,370.57l-34.5-.05a5,5,0,0,1-3.78-2.39l-14-24.35c-.76-1.32-.3-2.4,1-2.4l68,.25c1.32,0,1.77,1.08,1,2.39l-14,24.15A5,5,0,0,1,101.37,370.57Z"/><path class="cls-7" d="M121.23,337.41H85.64a3.09,3.09,0,0,0-3.09,3.08h0a3.11,3.11,0,0,0,3.09,3.1h35.59a3.11,3.11,0,0,0,3.09-3.1h0A3.09,3.09,0,0,0,121.23,337.41Z"/><path class="cls-7" d="M76.85,370.57,50,370.52c-1.31,0-3.42-.91-3.77-2.39l-5.8-24.35c-.35-1.48-.3-2.4,1-2.4l52.17.25c1.32,0,1.77,1.08,1,2.39l-14,24.15A5,5,0,0,1,76.85,370.57Z"/><path class="cls-8" d="M97.43,337.4H39.78a3.1,3.1,0,0,0-3.09,3.09h0a3.1,3.1,0,0,0,3.09,3.09H97.43a3.1,3.1,0,0,0,3.09-3.09h0A3.1,3.1,0,0,0,97.43,337.4Z"/><path class="cls-7" d="M184.5,93.66l8.14-32.72a9.73,9.73,0,0,1,5.43-5.59c4.31-1.83,24.18-4,24.18-4s5.11-.8,8.3,2.24,14.13,22.74,14.13,22.74Z"/><path class="cls-6" d="M184.5,93.66l4.33-17.4a125,125,0,0,1,20.58-7,120.81,120.81,0,0,1,29.11-3.7c3.25,5.49,6.16,10.73,6.16,10.73Z"/><path class="cls-9" d="M209.2,75c37.39-9.23,71.16-4.85,75.41,9.77s-22.61,34-60,43.19-71.16,4.85-75.41-9.77S171.8,84.23,209.2,75Z"/><path class="cls-6" d="M215.24,130c-17.09,3.25-32.91,3.6-44.83,1.38l18.55-34,5.45,4.2Z"/><path class="cls-4" d="M194.75,122.24v4.1c0,2-1.54,4.18-2.8,4.18V126a4,4,0,0,0-3.95-3.31,34.39,34.39,0,0,1-3.43-5.87h.29v-5.38A26.54,26.54,0,0,1,211.32,85h15a26.54,26.54,0,0,1,26.46,26.46v5.38h.65c-2.26,3.35-4.32,5.87-4.32,5.87a4,4,0,0,0-4,3.31v4.48c-1.27,0-2.8-2.2-2.8-4.18v-4.1a28.35,28.35,0,0,1-3-11.56h-7.1c-.69,0-1.36-.88-1.51-1.75s-.61-6.6-.76-8-.53-2-.76-1.69-.38,5.11-.76,8.16-2.08,3.25-2.14,3.25H196.51S196.28,117.9,194.75,122.24Z"/><path class="cls-4" d="M188.09,118.12s-.86,15.47-6.43,25.4a3.72,3.72,0,0,0,.06,4.56c1.86,2.19,13.73,11.89,34.39,14.72s40.82-14,41.35-16.19-6.33-18-5.79-31.34Z"/><rect class="cls-10" x="206.62" y="140.66" width="25.83" height="27.65"/><path class="cls-11" d="M206.62,154.29V140.66s17.24,1.55,25.83,2.36v18.61l-.75.58Z"/><path class="cls-6" d="M266.6,168.38c7,3.12,8.77,5.07,18.91,26.52s17.56,40.18,17.56,40.18,5.17,2.24,6.14,4.68.2,7.8.2,7.8,6.43,7.8,4.48,17-10,19.89-12.48,21.16-9,0-9,0S265,270.38,258.8,254,247.88,180.27,266.6,168.38Z"/><path class="cls-6" d="M172.48,168.38c-7,3.12-8.78,5.07-18.92,26.52S136,235.08,136,235.08s-5.17,2.24-6.15,4.68-.19,7.8-.19,7.8-6.44,7.8-4.49,17,10,19.89,12.49,21.16,9,0,9,0S174,270.38,180.28,254,191.2,180.27,172.48,168.38Z"/><path class="cls-3" d="M232.48,159.4l34.12,9s-9.75,23.79-2.73,44.46c0,0,2.92,14.43,1.36,25.55-.92,6.6.28,25.58,1.82,42H172c1.54-16.42,2.75-35.4,1.82-42-1.56-11.12,1.37-25.55,1.37-25.55,7-20.67-2.73-44.46-2.73-44.46l34.12-9c0,3.38,5.8,6.13,12.94,6.13S232.39,162.75,232.48,159.4Z"/><path class="cls-4" d="M261.88,204.33a46.65,46.65,0,0,0,2,8.51s.12.58.29,1.58L255,218.85l-5.59-12.11,2-9.06Z"/><path class="cls-7" d="M267.05,280.39c1.06,11.22,2.27,21.25,3.06,25.29a32.25,32.25,0,0,1,.63,8.39,108.15,108.15,0,0,1-102.41,0,33.15,33.15,0,0,1,.63-8.39c.8-4,2-14.07,3.06-25.29Z"/><path class="cls-11" d="M189.71,115l-.6.1h0a8.15,8.15,0,1,0,6.81,1.64c.2,2.41-.18,5.39-3.25,5.69l.09-4.7A2.81,2.81,0,0,0,189.71,115Z"/><path class="cls-11" d="M248.55,115l.6.1h0a8.16,8.16,0,1,1-6.8,1.64c-.21,2.41.17,5.39,3.25,5.69l-.09-4.7A2.8,2.8,0,0,1,248.55,115Z"/><path class="cls-12" d="M193,92.46a27.75,27.75,0,0,0-1.76,9.72v25.39a28,28,0,0,0,27.92,27.91h0A28,28,0,0,0,247,127.57V102.18a27.8,27.8,0,0,0-1.39-8.69A26.42,26.42,0,0,0,226.29,85h-15A26.37,26.37,0,0,0,193,92.46Z"/><path class="cls-13" d="M199.48,87.83l5.16,9,41.52,13.28s.41-2,.88-4.59v-3.38a27.8,27.8,0,0,0-1.39-8.69A26.42,26.42,0,0,0,226.29,85h-15A26.35,26.35,0,0,0,199.48,87.83Z"/><path class="cls-4" d="M211.85,135a7.22,7.22,0,1,0,14.44.13h0a1.25,1.25,0,0,0-1.24-1.26l-11.92-.11a1.25,1.25,0,0,0-1.26,1.24Z"/><path class="cls-14" d="M214.49,140.61a7.21,7.21,0,0,0,8.34.58,4.48,4.48,0,0,0-4.1-2.7A4.53,4.53,0,0,0,214.49,140.61Z"/><path class="cls-5" d="M225.2,133.84l-11.21-.1a2.55,2.55,0,0,0,1.21,2.78c1,.34,9.12.2,9.71-.43A4.32,4.32,0,0,0,225.2,133.84Z"/><rect class="cls-15" x="203.25" y="117.99" width="4.05" height="6.7" rx="2.03"/><path class="cls-4" d="M234,118h0a2,2,0,0,1,2,2v2.64a2,2,0,0,1-2,2h0a2,2,0,0,1-2-2V120A2,2,0,0,1,234,118Z"/><path class="cls-16" d="M217.56,125.47a19.93,19.93,0,0,0-1.62,3c-.92,2.4,3.68,3.89,3.94,1.36a9.39,9.39,0,0,0-.47-3.23C218.55,123.66,218.5,124,217.56,125.47Z"/><path class="cls-11" d="M235.67,128.94a3.83,3.83,0,1,0,3.76,3.91A3.84,3.84,0,0,0,235.67,128.94Z"/><path class="cls-11" d="M202.73,128.32a3.83,3.83,0,1,0,3.76,3.9A3.83,3.83,0,0,0,202.73,128.32Z"/><path class="cls-4" d="M201.84,114.05a1,1,0,0,1-1.32-.44,1,1,0,0,1,.44-1.33,9,9,0,0,1,8.49,0,1,1,0,0,1-1,1.7A7,7,0,0,0,201.84,114.05Z"/><path class="cls-4" d="M236.41,114.06a7,7,0,0,0-6.58,0,1,1,0,1,1-1-1.7,9,9,0,0,1,8.49,0,1,1,0,0,1-.89,1.78Z"/><path class="cls-4" d="M204.77,117.92h0a2.28,2.28,0,0,0-1.48.54.92.92,0,0,1-.63-.48.39.39,0,0,0-.51-.16.38.38,0,0,0-.16.5,1.76,1.76,0,0,0,.76.73l0,0a1.78,1.78,0,0,1-1-.6.37.37,0,0,0-.58.47,2.47,2.47,0,0,0,1.1.76h0a2.3,2.3,0,0,1-1.12-.36.37.37,0,1,0-.4.63,3,3,0,0,0,1.16.44l.51.07v2.82a2.35,2.35,0,0,0,2.34,2.34h0a2.34,2.34,0,0,0,2.34-2.34v-3A2.34,2.34,0,0,0,204.77,117.92Z"/><path class="cls-4" d="M233.48,117.92h0a2.31,2.31,0,0,1,1.49.54.94.94,0,0,0,.63-.48.37.37,0,1,1,.66.34,1.71,1.71,0,0,1-.76.73l0,0a1.75,1.75,0,0,0,1-.6.38.38,0,0,1,.53,0,.37.37,0,0,1,0,.52,2.42,2.42,0,0,1-1.1.76h0a2.33,2.33,0,0,0,1.12-.36.37.37,0,1,1,.39.63,2.93,2.93,0,0,1-1.15.44l-.52.07v2.82a2.34,2.34,0,0,1-2.34,2.34h0a2.34,2.34,0,0,1-2.34-2.34v-3A2.34,2.34,0,0,1,233.48,117.92Z"/><path class="cls-7" d="M219.54,197h29c3,0,9.08,3.18,10,12.59s7.81,62.58,7.81,62.58H172.75s6.89-53.16,7.8-62.58,7-12.59,10-12.59Z"/><path class="cls-7" d="M249.23,201.15a4.49,4.49,0,0,1-8.87-1.37c1.07-6.9,2.4-13.9,3.91-20.71.63-2.85,1.31-5.69,2.08-8.5a67,67,0,0,1,2.3-7.07,1.29,1.29,0,0,1,1.52-.76l6.26,1.64a1.22,1.22,0,0,1,.83.7,1.26,1.26,0,0,1,0,1.09,44.54,44.54,0,0,0-2.28,6.71c-.83,3-1.53,6-2.18,9C251.44,188.25,250.22,194.75,249.23,201.15Z"/><path class="cls-4" d="M244.8,198.88a1.59,1.59,0,1,1-1.59,1.59A1.59,1.59,0,0,1,244.8,198.88Z"/><path class="cls-7" d="M189.84,201.15a4.49,4.49,0,0,0,8.88-1.37c-1.07-6.9-2.4-13.9-3.91-20.71-.64-2.85-1.31-5.69-2.09-8.5a64.79,64.79,0,0,0-2.3-7.07,1.29,1.29,0,0,0-1.52-.76l-6.25,1.64a1.26,1.26,0,0,0-.84.7,1.23,1.23,0,0,0,0,1.09,44.54,44.54,0,0,1,2.28,6.71c.82,3,1.53,6,2.18,9C187.64,188.25,188.85,194.75,189.84,201.15Z"/><path class="cls-4" d="M194.28,198.88a1.59,1.59,0,1,0,1.59,1.59A1.59,1.59,0,0,0,194.28,198.88Z"/><path class="cls-17" d="M129.67,247.56s10.46-9.41,20.8-2"/><path class="cls-17" d="M136,235.08s16-10.07,21.35-17"/><path class="cls-17" d="M172.9,208.73s-1.55-14.94-7.15-20.11"/><path class="cls-17" d="M265.57,208.45s4-15.09,10.65-21.77"/><path class="cls-17" d="M268,201.13a15.14,15.14,0,0,1,7.17-3.9"/><path class="cls-17" d="M303.07,235.08a67.41,67.41,0,0,1-19-19.33"/><path class="cls-18" d="M261.62,202.26s-3.81-14.61-6.71-19.57"/><path class="cls-18" d="M177,205.51s3.92-12.37,4.46-13"/><path class="cls-17" d="M309.41,247.56a25.09,25.09,0,0,0-19.94-3.39"/><path class="cls-5" d="M232.48,159.4s-2.7,6.06-12.94,6.06c0,0,2.86,8.32,9.1,7.81s10.72-13.54,3.81-16Z"/><path class="cls-5" d="M206.6,159.4s2.7,6.06,12.94,6.06c0,0-2.87,8.32-9.11,7.81s-10.72-13.54-3.81-16Z"/><path class="cls-4" d="M252.61,108.78h-1.12c-.1,4.12-.35,7-.35,7-3.62-1.11-4.1,6.13-4.1,6.13-4.39-1.36-3.73-14-3.73-14-5-1.92-4.28-9.58-4.28-9.58-3.84,5-10.49-1.24-10.49-1.24-3.95,10-22.33-2.15-22.33-2.15s3.83,3.39,1.8,5.19-6.65-2.82-6.65-2.82a15,15,0,0,1-6.21,11.84c0,11.73-3.94,14.67-3.94,14.67.13-6.21-4.38-7.9-4.38-7.9s3.76-3.78,1.73-15a19.15,19.15,0,0,1-.27-2.4,26.53,26.53,0,0,1,23-13.47h15A26.55,26.55,0,0,1,252.61,108.78Z"/><path class="cls-6" d="M267,279.57c.91,9.82,1.95,18.81,2.74,23.83l-98.47-7-.61-2.7c.36-3.16.74-6.69,1.1-10.41l13.61-5.41S247.64,279,267,279.57Z"/><path class="cls-19" d="M176.78,207.79h0a8.59,8.59,0,0,1,8.55,8.56v32.27a8.58,8.58,0,0,1-8.55,8.55h0a8.58,8.58,0,0,1-8.56-8.55V216.35A8.59,8.59,0,0,1,176.78,207.79Z"/><path class="cls-20" d="M193.88,207.79h0a8.59,8.59,0,0,0-8.55,8.56v32.27a8.58,8.58,0,0,0,8.55,8.55h0a8.58,8.58,0,0,0,8.56-8.55V216.35A8.59,8.59,0,0,0,193.88,207.79Z"/><path class="cls-21" d="M211,207.79h0a8.59,8.59,0,0,1,8.55,8.56v32.27a8.58,8.58,0,0,1-8.55,8.55h0a8.57,8.57,0,0,1-8.55-8.55V216.35A8.58,8.58,0,0,1,211,207.79Z"/><path class="cls-22" d="M228.09,207.79h0a8.59,8.59,0,0,0-8.55,8.56v32.27a8.58,8.58,0,0,0,8.55,8.55h0a8.57,8.57,0,0,0,8.55-8.55V216.35A8.58,8.58,0,0,0,228.09,207.79Z"/><path class="cls-19" d="M245.2,207.79h0a8.59,8.59,0,0,1,8.55,8.56v32.27a8.58,8.58,0,0,1-8.55,8.55h0a8.58,8.58,0,0,1-8.56-8.55V216.35A8.59,8.59,0,0,1,245.2,207.79Z"/><path class="cls-20" d="M262.3,207.79h0a8.59,8.59,0,0,0-8.55,8.56v32.27a8.58,8.58,0,0,0,8.55,8.55h0a8.58,8.58,0,0,0,8.56-8.55V216.35A8.59,8.59,0,0,0,262.3,207.79Z"/><path class="cls-19" d="M270.86,218.75h0a8.58,8.58,0,0,0-8.56,8.56v32.27a8.58,8.58,0,0,0,8.56,8.55h0a8.58,8.58,0,0,0,8.55-8.55V227.31A8.58,8.58,0,0,0,270.86,218.75Z"/><path class="cls-20" d="M253.75,218.75h0a8.58,8.58,0,0,1,8.55,8.56v32.27a8.58,8.58,0,0,1-8.55,8.55h0a8.58,8.58,0,0,1-8.55-8.55V227.31A8.58,8.58,0,0,1,253.75,218.75Z"/><path class="cls-21" d="M236.64,218.75h0a8.58,8.58,0,0,0-8.55,8.56v32.27a8.58,8.58,0,0,0,8.55,8.55h0a8.58,8.58,0,0,0,8.56-8.55V227.31A8.58,8.58,0,0,0,236.64,218.75Z"/><path class="cls-22" d="M219.54,218.75h0a8.58,8.58,0,0,1,8.55,8.56v32.27a8.58,8.58,0,0,1-8.55,8.55h0a8.58,8.58,0,0,1-8.55-8.55V227.31A8.58,8.58,0,0,1,219.54,218.75Z"/><path class="cls-19" d="M202.44,218.75h0a8.58,8.58,0,0,0-8.56,8.56v32.27a8.58,8.58,0,0,0,8.56,8.55h0a8.58,8.58,0,0,0,8.55-8.55V227.31A8.58,8.58,0,0,0,202.44,218.75Z"/><path class="cls-20" d="M185.33,218.75h0a8.58,8.58,0,0,1,8.55,8.56v32.27a8.58,8.58,0,0,1-8.55,8.55h0a8.58,8.58,0,0,1-8.55-8.55V227.31A8.58,8.58,0,0,1,185.33,218.75Z"/><path class="cls-19" d="M168.22,218.75h0a8.58,8.58,0,0,0-8.55,8.56v32.27a8.58,8.58,0,0,0,8.55,8.55h0a8.58,8.58,0,0,0,8.56-8.55V227.31A8.58,8.58,0,0,0,168.22,218.75Z"/><path class="cls-3" d="M262.21,256.62H176.87c-2.53-2.41-8.35-7.94-9.45-8.92a7.17,7.17,0,0,0-4-1.32h-7.36c-3.61,0-3.32,2.83-3.32,2.83v40.9a4.36,4.36,0,0,0,4.34,4.35H282a4.37,4.37,0,0,0,4.35-4.35v-40.9s.29-2.83-3.32-2.83h-7.36a7.17,7.17,0,0,0-4,1.32C270.56,248.68,264.74,254.21,262.21,256.62Z"/><path class="cls-4" d="M152.74,281.07v9a4.36,4.36,0,0,0,4.34,4.35h12.54v0l-9.58-14.08A18.71,18.71,0,0,0,152.74,281.07Z"/><path class="cls-4" d="M268.59,294.46H282a4.37,4.37,0,0,0,1.26-.19c.66-2.57,1.94-9.41,3.09-15.76v-10l-8.73,11.22-2.89,8.12Z"/><path class="cls-12" d="M288.18,271.49a5.21,5.21,0,0,1-.77.54c-1.07.56-4.34,2-6.17,3.14-1,.62-7.68,10.22-8,11s1.64,2.55,3.36,1.51c2.25-1.37,5.86-4.2,5.86-4.2l-5.71,8.19s-1.36,2.79-3.46,2.79h-6.68a5.67,5.67,0,0,0-4.92,2.82c-.78,1.37.68,1.85,2.78,1.85h4s-.19,1,1.9,1h10.68a7.59,7.59,0,0,0,6.1-3.76c1.17-2,7.12-8,8.19-10.43.5-1.14,1.05-2.86,1.61-4.55h0l.15-.45C298.53,275.9,293.52,269.28,288.18,271.49Z"/><path class="cls-12" d="M150.9,271.49a4.74,4.74,0,0,0,.77.54c1.07.56,4.34,2,6.16,3.14,1,.62,7.68,10.22,8,11s-1.64,2.55-3.36,1.51c-2.24-1.37-5.85-4.2-5.85-4.2l5.7,8.19s1.37,2.79,3.47,2.79h6.68a5.69,5.69,0,0,1,4.92,2.82c.78,1.37-.68,1.85-2.78,1.85h-4s.2,1-1.9,1H158a7.59,7.59,0,0,1-6.09-3.76c-1.17-2-7.12-8-8.19-10.43-.51-1.14-1.06-2.86-1.62-4.55h0L142,281C140.54,275.9,145.56,269.28,150.9,271.49Z"/><path class="cls-23" d="M152.74,266.56h133.6"/><path class="cls-7" d="M242.5,72.47C261.3,73,275,78.08,277.58,87c2.67,9.19-6.95,20.25-23.76,29.48l-.62.34h.2l-.25.37a5.67,5.67,0,0,1,.58.62l1.66-.78c20.14-9.74,32.17-22.15,29.22-32.3s-20.38-15.44-43.37-14.49a163,163,0,0,0-32,4.72c-5.32,1.32-10.43,2.83-15.26,4.51,2.67-.8,5.42-1.55,8.22-2.24A154.9,154.9,0,0,1,242.5,72.47Z"/><path class="cls-24" d="M249.23,201.15a4.49,4.49,0,0,1-8.87-1.37c.14-.93.29-1.87.45-2.81"/><path class="cls-24" d="M189.84,201.15a4.49,4.49,0,0,0,8.88-1.37"/><path class="cls-8" d="M69.15,113.9A23.54,23.54,0,1,0,45.62,90.36,23.58,23.58,0,0,0,69.15,113.9Z"/><path class="cls-7" d="M71.55,61.32a2.41,2.41,0,0,1-4.8,0l-1.16-9.21h0a4.07,4.07,0,0,1,0-.61,3.61,3.61,0,0,1,7.22,0,4.07,4.07,0,0,1-.05.61h0Z"/><path class="cls-7" d="M71.55,119.4a2.41,2.41,0,0,0-4.8,0l-1.16,9.22h0a4,4,0,0,0,0,.6,3.61,3.61,0,0,0,7.22,0,4,4,0,0,0-.05-.6h0Z"/><path class="cls-7" d="M85.75,66.41A2.4,2.4,0,0,1,81.6,64l3.6-8.56h0a3,3,0,0,1,.26-.54,3.61,3.61,0,1,1,6.25,3.6,3.7,3.7,0,0,1-.35.5h0Z"/><path class="cls-7" d="M56.71,116.71a2.41,2.41,0,0,0-4.15-2.4l-5.62,7.41h0a3.54,3.54,0,0,0-.34.49,3.61,3.61,0,0,0,6.25,3.61,3.94,3.94,0,0,0,.26-.55h0Z"/><path class="cls-7" d="M95.5,77.92a2.41,2.41,0,0,1-2.4-4.15l7.4-5.62h0a4.39,4.39,0,0,1,.5-.34,3.61,3.61,0,1,1,3.61,6.25,3.94,3.94,0,0,1-.55.26h0Z"/><path class="cls-7" d="M45.2,107a2.4,2.4,0,0,0-2.4-4.15l-8.56,3.6h0a4.55,4.55,0,0,0-.55.26,3.61,3.61,0,1,0,3.61,6.25,3,3,0,0,0,.5-.35h0Z"/><path class="cls-7" d="M98.19,92.76a2.4,2.4,0,0,1,0-4.79l9.22-1.17h0a3,3,0,0,1,.6-.06A3.61,3.61,0,0,1,108,94a3.94,3.94,0,0,1-.6,0h0Z"/><path class="cls-7" d="M40.11,92.76a2.4,2.4,0,0,0,0-4.79L30.9,86.8h0a3.08,3.08,0,0,0-.61-.06,3.61,3.61,0,1,0,0,7.22,4.07,4.07,0,0,0,.61,0h0Z"/><path class="cls-7" d="M93.1,107a2.41,2.41,0,0,1,2.4-4.15l8.56,3.6h0a3.94,3.94,0,0,1,.55.26,3.61,3.61,0,1,1-3.61,6.25,3.45,3.45,0,0,1-.5-.35h0Z"/><path class="cls-7" d="M42.8,77.92a2.4,2.4,0,0,0,2.4-4.15l-7.4-5.62h0a3.65,3.65,0,0,0-.5-.34,3.61,3.61,0,0,0-3.61,6.25,4.55,4.55,0,0,0,.55.26h0Z"/><path class="cls-7" d="M81.6,116.71a2.41,2.41,0,0,1,4.15-2.4l5.61,7.41h0a3.61,3.61,0,1,1-5.9,4.1,3.06,3.06,0,0,1-.26-.55h0Z"/><path class="cls-7" d="M52.56,66.41A2.4,2.4,0,0,0,56.71,64l-3.6-8.56h0a4.55,4.55,0,0,0-.26-.55A3.61,3.61,0,1,0,46.94,59h0Z"/><path class="cls-19" d="M375.92,84c-.13-.77-.29-1.52-.46-2.23s-.38-1.42-.61-2.08a19,19,0,0,0-3.33-6.15,15.52,15.52,0,0,0-5.12-4,17.62,17.62,0,0,0-5.61-1.6,22.41,22.41,0,0,0-6.38.19c-.72.11-1.44.26-2.15.44s-1.43.39-2.13.63h0a.34.34,0,0,0-.18.15.3.3,0,0,0,0,.23v0a35.92,35.92,0,0,0,6.38,10.78c4.26,4.74,10.69,8.35,19.42,4a.32.32,0,0,0,.14-.14.31.31,0,0,0,0-.19Z"/><path class="cls-6" d="M358.64,106.37a14,14,0,0,1,5.43,1.08,8.31,8.31,0,0,1,9.72-2,15.16,15.16,0,0,1,29.06,6.06c0,.3,0,.59,0,.89a7.93,7.93,0,0,1,1-.06,8.28,8.28,0,0,1,8.28,8.27,8.07,8.07,0,0,1-.17,1.64l.45,0a6.13,6.13,0,0,1,0,12.26H358.64a14,14,0,1,1,0-28.08Z"/><path class="cls-19" d="M387.73,70.74c-.05-.94-.07-1.86-.06-2.74s.07-1.77.16-2.61a23,23,0,0,1,2.28-8.11,18.48,18.48,0,0,1,4.94-6.09,20.84,20.84,0,0,1,6.17-3.38,27.26,27.26,0,0,1,7.55-1.48c.87,0,1.76-.07,2.64,0s1.79.08,2.67.17h0a.38.38,0,0,1,.25.13.38.38,0,0,1,.08.27v0a43.39,43.39,0,0,1-4.63,14.36C406,68,399.44,73.9,388,71.08a.39.39,0,0,1-.2-.13.32.32,0,0,1-.08-.21Z"/><path class="cls-25" d="M381.92,111.2V84.13c0-7.63,3.6-11.67,7.21-15.11"/><path class="cls-25" d="M381.92,111.2V93.13c0-5.09-3.61-7.79-7.22-10.08"/><path class="cls-17" d="M411.22,129.64a12.07,12.07,0,0,0-16.74-11.13,7.13,7.13,0,0,0-8.35-1.76,13,13,0,0,0-11.95-7.82"/><path class="cls-17" d="M355,125.6a12.08,12.08,0,0,1,16.52-4.31,11.94,11.94,0,0,1,3.55,3.17,7.1,7.1,0,0,1,5.84.61,7.2,7.2,0,0,1,2.25,2.1"/><path class="cls-26" d="M386.4,363.16c5.26-12.25,9.42-26.94,6.56-39.05a.77.77,0,0,0-1.49.35c3,12.92-2.16,29-8,41.59A10.35,10.35,0,0,0,386.4,363.16Z"/><path class="cls-26" d="M392.24,341.57c-.69-7.34-4.34-7.46-5.32-5.58C386.15,337.47,387,340.16,392.24,341.57Z"/><path class="cls-26" d="M392.24,341.57c5.92-2.52,5.91-5.51,4.43-6.48S392,335.29,392.24,341.57Z"/><path class="cls-6" d="M392.24,341.57c4.85-6.62,2-9.46-.24-8.7C390.22,333.48,388.85,336.42,392.24,341.57Z"/><path class="cls-26" d="M392.44,325.06c-2.93-6.07-6.07-5.63-6.79-3.91S386.46,325.6,392.44,325.06Z"/><path class="cls-26" d="M392.43,325.06c4.36-4.12,3.75-6.84,2.25-7.51C392.89,316.76,389.83,318.89,392.43,325.06Z"/><path class="cls-6" d="M392.44,325.06c2-7.15-.8-9.19-2.7-8.41S386.88,321,392.44,325.06Z"/><path class="cls-26" d="M392.75,367.18c7-11.33,13.33-25.23,12.31-37.63a.76.76,0,0,0-.82-.7.78.78,0,0,0-.7.83c1.09,13.22-6.46,28.29-14.14,39.92A10.4,10.4,0,0,0,392.75,367.18Z"/><path class="cls-26" d="M395,361.72c5.65-1.05,6.77-3.5,6.06-4.91C400.17,355,396.23,354.89,395,361.72Z"/><path class="cls-6" d="M395,361.72c4.9-4.38,4.4-7.43,2.8-8.31C395.86,352.33,392.23,354.56,395,361.72Z"/><path class="cls-26" d="M401.74,346.71c.38-6.66-2.52-7.84-4-6.74S396.19,344.26,401.74,346.71Z"/><path class="cls-26" d="M401.74,346.71c7.08-1.83,6.69-5.41,4.73-6.12C404.9,340,402.32,341.27,401.74,346.71Z"/><path class="cls-6" d="M401.74,346.71c5.36-5.4,3.69-8.57,1.58-8.68S398.92,340.58,401.74,346.71Z"/><path class="cls-26" d="M404.4,330.41c-1.82-5.92-4.65-6.43-5.85-5.23C397.2,326.52,397.9,330,404.4,330.41Z"/><path class="cls-26" d="M404.4,330.41c4.87-3.39,4.73-6.14,3.39-7.06C406.15,322.24,402.73,323.86,404.4,330.41Z"/><path class="cls-6" d="M404.4,330.41c2.86-6.28.92-8.83-1-8.78C401.27,321.69,399.16,325.18,404.4,330.41Z"/><path class="cls-26" d="M398.72,373.64c9.75-9.1,19.46-20.88,21.71-33.11a.76.76,0,0,0-1.5-.28c-2.4,13.05-13.62,25.63-24.07,34.85A10.44,10.44,0,0,0,398.72,373.64Z"/><path class="cls-26" d="M402.35,369c2.74-6.67-.24-8.54-2-7.5C398.9,362.33,398.27,365.18,402.35,369Z"/><path class="cls-26" d="M402.35,369c5.54.44,7.33-1.48,7.15-3C409.26,363.87,405.36,362.53,402.35,369Z"/><path class="cls-6" d="M402.35,369c6.77-3.33,6.29-6.84,4.37-7.67S401.68,362.19,402.35,369Z"/><path class="cls-26" d="M412.75,356.22c2.06-6.19-.29-8.14-2-7.59S407.92,352.33,412.75,356.22Z"/><path class="cls-26" d="M412.75,356.22c6.68.08,7.62-3,6.38-4.36S414.83,350.64,412.75,356.22Z"/><path class="cls-6" d="M412.75,356.22c6-3.5,5.87-6.73,4.25-7.74C415.18,347.34,411.53,349,412.75,356.22Z"/><path class="cls-26" d="M419.57,341.18c-.24-7.11-3.64-7.67-4.86-6.06C413.68,336.48,414.22,339.39,419.57,341.18Z"/><path class="cls-26" d="M419.57,341.18c8.14-2.91,5.65-7.31,2.95-6.49C421.1,335.12,419.63,337,419.57,341.18Z"/><path class="cls-6" d="M419.57,341.18c4.86-5.88,2.88-8.89.76-8.78S416.22,335.37,419.57,341.18Z"/><path class="cls-4" d="M361.81,339.34s-5.39-4.83-5.28-10.16,2.8-7,2.84-8.34-2.71-3.69-6.54-3.06-1.42,3.78-2.16,9.28-2.14,10.24-5.9,13.09S361.81,339.34,361.81,339.34Z"/><path class="cls-27" d="M354.43,342a16.37,16.37,0,0,0-3.7-1.62c-27.68-8.79-43.58,13.23-40.11,34.08,3.15,19,19.2,31.91,43.81,25.47,24.61,6.44,40.66-6.44,43.82-25.47,3.46-20.85-12.43-42.87-40.12-34.08A16.37,16.37,0,0,0,354.43,342Z"/><path class="cls-28" d="M335.5,401a43.61,43.61,0,0,0,18.93-1.08c24.61,6.44,40.66-6.44,43.82-25.47a34.28,34.28,0,0,0-1.82-18Z"/><path class="cls-29" d="M354.43,340.11a12,12,0,0,1,2.92-1.73c21.86-9.38,34.41,14.13,31.68,36.37-2.5,20.31-15.17,34.05-34.6,27.17-19.43,6.88-32.1-6.86-34.59-27.17-2.73-22.24,9.81-45.75,31.67-36.37A11.74,11.74,0,0,1,354.43,340.11Z"/><path class="cls-27" d="M388.94,361.94a50.34,50.34,0,0,1,.09,12.81c-2.5,20.31-15.17,34.05-34.6,27.17-7.58,2.69-14.14,2.23-19.46-.54Z"/><path class="cls-8" d="M342.15,399.37c-13.65-16.45-14.78-63.13,12.28-62.87,26.3-.25,26,43.84,13.4,61.42C361.45,406.83,349.33,408,342.15,399.37Z"/><path class="cls-29" d="M342.15,399.37c-.54-.65-1.06-1.35-1.56-2.09L376,371.39c-.61,10.08-3.57,20.08-8.18,26.53C361.45,406.83,349.33,408,342.15,399.37Z"/><path class="cls-21" d="M428.34,377.08c-4,1.73-13.09,3.37-18,4.16-6.81,1.1-8-1.62-2.43-5.47,4-2.78,11.6-7.82,15.7-9.32C431.54,363.57,436.05,373.71,428.34,377.08Z"/><path class="cls-19" d="M419.69,374.74c-3.53,2.53-12.09,6.05-16.71,7.85-6.43,2.52-8.18.11-3.53-4.84,3.35-3.56,9.7-10.08,13.39-12.4C420,360.86,426.52,369.83,419.69,374.74Z"/><path class="cls-20" d="M419.14,374.24c-4.29.73-12.8,4.35-17.34,6.36-6.3,2.81-5.82,5.75,1,5.92,4.89.12,14,.18,18.24-.81C429.21,383.8,427.43,372.83,419.14,374.24Z"/><path class="cls-7" d="M384.08,372C374.8,375.44,357.91,388,349,395c-12.42,9.67-9.27,17.21,6.34,15.17,11.23-1.47,32.07-4.62,41.06-8.77C413.77,393.36,402,365.24,384.08,372Z"/><path class="cls-30" d="M350.24,394s2.75,2.57,4.45,10.88"/><path class="cls-30" d="M370.34,407.94a56.92,56.92,0,0,0-4.68-16.26"/><path class="cls-30" d="M373.82,377.32A69.28,69.28,0,0,1,381,395.09"/><path class="cls-30" d="M396,401.59s-.35-12.72-4.15-20.25"/><path class="cls-20" d="M219.54,439.55a33,33,0,1,0-33-33A33,33,0,0,0,219.54,439.55Z"/><path class="cls-5" d="M214,402.48l5-8.44a1.84,1.84,0,0,0-.22-1.51l-5.66-8.86h0a.41.41,0,0,0-.76,0l-7.82,13.18a.88.88,0,0,0,.31,1.19l8,4.72A.88.88,0,0,0,214,402.48Z"/><path class="cls-5" d="M223,396.79l-9.24-14.49a.45.45,0,0,1,.14-.63l9.78-2c.56-.11,1.36-.15,1.56.18l7,11a.68.68,0,0,0,.95.18l2-1.3a.45.45,0,0,1,.53,0,.46.46,0,0,1,.16.51l-3.06,9.39c-.64,2-.19,1.61-2.25,1.36l-9.71-1.16a.46.46,0,0,1-.39-.36.44.44,0,0,1,.2-.49l2-1.31A.65.65,0,0,0,223,396.79Z"/><path class="cls-5" d="M228.85,405.19l4.42,8.76a1.81,1.81,0,0,0,1.39.63h10.52s.71,0,.39-.66l-6.91-13.68a.86.86,0,0,0-1.17-.38L229.24,404A.87.87,0,0,0,228.85,405.19Z"/><path class="cls-5" d="M228.58,415.62h17.18a.46.46,0,0,1,.46.46l-3.61,9.3c-.2.53-.6,1.23-1,1.23h-13a.65.65,0,0,0-.66.69v2.42a.47.47,0,0,1-.83.3l-6.26-7.63c-1.32-1.6-1.26-1,.06-2.63l6.2-7.56a.47.47,0,0,1,.83.3v2.42A.67.67,0,0,0,228.58,415.62Z"/><path class="cls-5" d="M217.92,415.64l-9.8-.11a1.76,1.76,0,0,0-1.2.94l-4.85,9.33h0s-.31.64.4.65l15.33.18a.88.88,0,0,0,.88-.86l.1-9.25A.87.87,0,0,0,217.92,415.64Z"/><path class="cls-5" d="M208.66,410.71,200.74,426a.47.47,0,0,1-.63.19l-6.59-7.49c-.37-.42-.8-1.09-.63-1.43l6-11.59a.66.66,0,0,0-.31-.9l-2.15-1.12a.46.46,0,0,1-.25-.48.47.47,0,0,1,.36-.39l9.66-2c2-.43,1.49-.64,2.31,1.27l3.84,9a.46.46,0,0,1-.11.53.47.47,0,0,1-.53.07l-2.15-1.12A.66.66,0,0,0,208.66,410.71Z"/><path class="cls-19" d="M409.07,255.92a33,33,0,1,0-33-33A33,33,0,0,0,409.07,255.92Z"/><path class="cls-31" d="M255.47,27.34A194.58,194.58,0,0,1,336.89,63.2m64.86,85.53a194.59,194.59,0,0,1,8.53,28.13m-1,89.57c-2.47,10-10.31,33.73-18.55,45.7m-93.37,86.61a193.65,193.65,0,0,1-39.57,12.36m-76.67,0A193.93,193.93,0,0,1,125.91,391M36.43,287.79a193.84,193.84,0,0,1-7.71-26.11m.86-88.2a193.58,193.58,0,0,1,9.88-30m84-94.2a194,194,0,0,1,62.65-22.37"/><path class="cls-20" d="M294.89,130.15c-.07-1.18-.09-2.31-.07-3.42s.08-2.19.19-3.23a28.45,28.45,0,0,1,2.84-10.08,23,23,0,0,1,6.14-7.56,26,26,0,0,1,7.66-4.21A34.76,34.76,0,0,1,321,99.81c1.09-.06,2.19-.08,3.28,0s2.22.09,3.32.21h0a.45.45,0,0,1,.31.16.48.48,0,0,1,.1.33v0a53.6,53.6,0,0,1-5.76,17.85c-4.64,8.34-12.83,15.73-27,12.23a.47.47,0,0,1-.25-.16.49.49,0,0,1-.1-.26Z"/><path class="cls-32" d="M294.89,130.15s16.94-20.44,33.05-30"/><path class="cls-32" d="M298.09,113s1.06,10.54,1.27,12.09l15.92,1.85"/><path class="cls-32" d="M305.44,104.78c.32,3.12,1.14,11.14,1.33,12.56l15.08,1.75"/><path class="cls-32" d="M313.55,101.05c.37,3.58.83,8,1,9.06l10.86,1.27"/><path class="cls-32" d="M321,99.82c.23,2.17.43,4,.52,4.65l5.69.66"/><path class="cls-20" d="M130.85,319c.11-1.85.15-3.64.12-5.38s-.14-3.46-.31-5.1a45,45,0,0,0-4.47-15.89,36.4,36.4,0,0,0-9.68-11.93A41.22,41.22,0,0,0,104.43,274a53.61,53.61,0,0,0-14.79-2.9c-1.72-.1-3.45-.13-5.18-.09s-3.5.15-5.23.33h0a.74.74,0,0,0-.49.26.75.75,0,0,0-.15.53v.05c.08.67,1.84,15.15,9.09,28.14,7.32,13.15,20.23,24.79,42.63,19.28a.67.67,0,0,0,.38-.25.7.7,0,0,0,.16-.42Z"/><path class="cls-32" d="M130.85,319s-26.71-32.22-52.11-47.33"/><path class="cls-32" d="M125.81,291.87s-1.67,16.61-2,19.07l-25.09,2.92"/><path class="cls-32" d="M114.21,279c-.5,4.93-1.78,17.56-2.09,19.8l-23.77,2.77"/><path class="cls-32" d="M101.43,273.07c-.58,5.64-1.31,12.68-1.54,14.29l-17.11,2"/><path class="cls-32" d="M89.73,271.13c-.36,3.42-.68,6.36-.81,7.34l-9,1"/><path class="cls-33" d="M219.54,46a23,23,0,1,0-23-23A23,23,0,0,0,219.54,46Z"/><path class="cls-5" d="M228.28,21.05a8.69,8.69,0,0,1,.8,1.47l0,0a10.54,10.54,0,0,1,.87,4.18,10.43,10.43,0,1,1-20-4.17h0a10.31,10.31,0,0,1,.81-1.5l7.8-14.38a1.05,1.05,0,0,1,.95-.56,1,1,0,0,1,.94.56Z"/><path class="cls-3" d="M398.53,205a.45.45,0,0,0,.61.16.44.44,0,0,0,.16-.6l-.86-1.49a.44.44,0,0,0-.6-.16.43.43,0,0,0-.16.6l.85,1.49Zm10.1-2.94a.45.45,0,0,0,.89,0v-1.72a.45.45,0,0,0-.89,0V202Zm10.21,2.5a.43.43,0,0,0,.17.6.44.44,0,0,0,.6-.16l.86-1.49a.43.43,0,0,0-.17-.6.44.44,0,0,0-.6.16l-.86,1.49Zm7.6,7.27a.44.44,0,1,0,.44.76l1.48-.85a.44.44,0,0,0,.17-.61.45.45,0,0,0-.61-.16l-1.48.86Zm1.11,10.09a.45.45,0,1,0,0,.89h1.71a.45.45,0,1,0,0-.89Zm-3.92,9.4a.43.43,0,0,0-.6.17.44.44,0,0,0,.16.6l1.49.86a.44.44,0,0,0,.6-.16.45.45,0,0,0-.16-.61l-1.49-.86Zm-28.68.77a.44.44,0,0,0,.16-.6.43.43,0,0,0-.6-.17l-1.49.86a.44.44,0,0,0,.44.77l1.49-.86Zm-4.36-9.28a.45.45,0,1,0,0-.89h-1.71a.45.45,0,1,0,0,.89Zm.67-10.22a.45.45,0,0,0,.61-.16.43.43,0,0,0-.17-.6l-1.48-.86a.45.45,0,0,0-.61.16.44.44,0,0,0,.17.61Z"/><rect class="cls-15" x="405.84" y="237.89" width="6.47" height="7.85" rx="1.72"/><path class="cls-34" d="M411.77,240.85h-5.4v-4.42a1.11,1.11,0,0,1,1.1-1.1h3.2a1.11,1.11,0,0,1,1.1,1.1Z"/><path class="cls-5" d="M409.07,203.75a15.55,15.55,0,0,0-8.54,28.55l.06,0a7.3,7.3,0,0,1,2.09,2,4.49,4.49,0,0,1,.8,2.2c0,.51,0,1,0,1.55a2.87,2.87,0,0,0,2.86,2.85h5.47a2.89,2.89,0,0,0,2.86-2.85v-1.52a4.4,4.4,0,0,1,.8-2.23,7.17,7.17,0,0,1,2.09-2l0,0a15.59,15.59,0,0,0,5.13-5.57l0,0a15.4,15.4,0,0,0,1.88-7.4h0a15.53,15.53,0,0,0-15.55-15.55Z"/><path class="cls-3" d="M405.76,240.11h6.62a.9.9,0,0,1,.9.9h0a.9.9,0,0,1-.9.9h-6.62a.9.9,0,0,1-.9-.9h0A.91.91,0,0,1,405.76,240.11Z"/><path class="cls-3" d="M405.61,242.58h6.92a.55.55,0,0,1,.55.55h0a.56.56,0,0,1-.55.56h-6.92a.56.56,0,0,1-.55-.56h0A.55.55,0,0,1,405.61,242.58Z"/><path class="cls-20" d="M405.85,231.08c0-.56,0-1.09,0-1.62s0-1,.09-1.53a13.46,13.46,0,0,1,1.35-4.79,10.88,10.88,0,0,1,2.91-3.59,12.55,12.55,0,0,1,3.64-2,16.19,16.19,0,0,1,4.45-.87q.78,0,1.56,0c.53,0,1.06,0,1.58.1h0a.22.22,0,0,1,.14.08.18.18,0,0,1,0,.16h0a25.82,25.82,0,0,1-2.74,8.48c-2.2,4-6.09,7.46-12.83,5.8a.24.24,0,0,1-.12-.07.21.21,0,0,1,0-.13Z"/><path class="cls-20" d="M409.14,219.25a13.13,13.13,0,0,0-1.17-1.07,12.37,12.37,0,0,0-3.63-2,16.33,16.33,0,0,0-4.46-.87q-.76,0-1.56,0c-.52,0-1.05.05-1.57.1h0a.22.22,0,0,0-.15.08.22.22,0,0,0,0,.16h0a25.48,25.48,0,0,0,2.73,8.48,12.15,12.15,0,0,0,5.55,5.42c0-.14,0-.28,0-.41a15.36,15.36,0,0,1,.09-1.54,13.68,13.68,0,0,1,1.34-4.78A11.06,11.06,0,0,1,409.14,219.25Z"/><path class="cls-20" d="M33,255.92a33,33,0,1,0-33-33A33.05,33.05,0,0,0,33,255.92Z"/><path class="cls-35" d="M23.22,207.52H42.74a3.35,3.35,0,0,1,3.35,3.35V235a3.36,3.36,0,0,1-3.36,3.36H23.23A3.35,3.35,0,0,1,19.87,235V210.87A3.35,3.35,0,0,1,23.22,207.52Z"/><path class="cls-4" d="M22,207.52H44A1.51,1.51,0,0,0,45.5,206h0a1.5,1.5,0,0,0-1.5-1.5H22a1.51,1.51,0,0,0-1.51,1.5h0A1.52,1.52,0,0,0,22,207.52Z"/><rect class="cls-35" x="20.46" y="198.93" width="25.04" height="5.58" rx="2.79"/><path class="cls-4" d="M22,238.35H44a1.51,1.51,0,0,1,1.5,1.51h0a1.5,1.5,0,0,1-1.5,1.5H22a1.51,1.51,0,0,1-1.51-1.5h0A1.52,1.52,0,0,1,22,238.35Z"/><path class="cls-5" d="M23.25,247H42.71a2.8,2.8,0,0,0,2.79-2.8h0a2.8,2.8,0,0,0-2.79-2.79H23.25a2.8,2.8,0,0,0-2.79,2.79h0A2.81,2.81,0,0,0,23.25,247Z"/><path class="cls-8" d="M33,232.26a9.33,9.33,0,1,0-9.32-9.33A9.35,9.35,0,0,0,33,232.26Z"/><path class="cls-6" d="M27.86,224.08a.83.83,0,1,0-.83-.83A.83.83,0,0,0,27.86,224.08Z"/><path class="cls-6" d="M30.78,228.09a.83.83,0,1,0,0-1.66.83.83,0,1,0,0,1.66Z"/><path class="cls-6" d="M34.48,221.58a.83.83,0,1,0-.84-.83A.83.83,0,0,0,34.48,221.58Z"/><path class="cls-6" d="M38.85,222.73a.83.83,0,0,0,.83-.83.83.83,0,1,0-1.66,0A.83.83,0,0,0,38.85,222.73Z"/><path class="cls-6" d="M37,228.25a.83.83,0,1,0-.84-.83A.83.83,0,0,0,37,228.25Z"/><path class="cls-6" d="M29.84,221.32a.83.83,0,0,0,0-1.66.83.83,0,1,0,0,1.66Z"/><path class="cls-6" d="M33.59,226.38a.84.84,0,0,0,.83-.84.83.83,0,0,0-.83-.83.84.84,0,0,0-.84.83A.85.85,0,0,0,33.59,226.38Z"/><path class="cls-6" d="M35.67,219a.84.84,0,1,0-.83-.83A.83.83,0,0,0,35.67,219Z"/><path class="cls-6" d="M32.18,217.05a.83.83,0,1,0,0-1.66.83.83,0,0,0,0,1.66Z"/><path class="cls-6" d="M31.71,224.08a.83.83,0,1,0-.83-.83A.84.84,0,0,0,31.71,224.08Z"/><path class="cls-6" d="M26.82,220a.84.84,0,0,0,0-1.67.84.84,0,1,0,0,1.67Z"/><path class="cls-6" d="M26.92,228.09a.83.83,0,1,0,0-1.66.83.83,0,1,0,0,1.66Z"/><path class="cls-6" d="M32.76,231.17a.84.84,0,1,0-.84-.84A.84.84,0,0,0,32.76,231.17Z"/><path class="cls-6" d="M36.19,224.5a.84.84,0,0,0,.84-.83.85.85,0,0,0-.84-.84.84.84,0,0,0-.83.84A.83.83,0,0,0,36.19,224.5Z"/><path class="cls-6" d="M40.36,226.06a.83.83,0,1,0-.83-.83A.83.83,0,0,0,40.36,226.06Z"/><path class="cls-6" d="M39.16,219.24a.84.84,0,0,0,.84-.83.85.85,0,0,0-.84-.84.84.84,0,0,0-.83.84A.83.83,0,0,0,39.16,219.24Z"/></g></g></svg>