<svg id="Capa_1" enable-background="new 0 0 512 512" height="512" viewBox="0 0 512 512" width="512" xmlns="http://www.w3.org/2000/svg"><g><path d="m512 291.459h-512v-291.459h512z" fill="#f5fbff"/><path d="m512 291.459h-255.966v-291.459h255.966z" fill="#cae1f9"/><path d="m0 130.73h135.928v30h-135.928z" fill="#50c5ff"/><path d="m376.517 130.73h135.483v30h-135.483z" fill="#488aff"/><path d="m175.348 118.538 40.342 39.326-9.524 55.526 49.869-26.215 49.865 26.215-9.524-55.53 40.343-39.322-55.752-8.101-24.933-50.52-24.934 50.52z" fill="#ffb725"/><path d="m336.719 118.538-55.752-8.101-24.933-50.52v127.258h.001l49.865 26.215-9.524-55.53z" fill="#ff9000"/><path d="m183.387 512h-183.387v-25.278c0-24.447 9.903-46.128 27.884-61.048 16.471-13.666 39.131-21.192 63.808-21.192 24.676 0 47.337 7.526 63.808 21.192 17.983 14.92 27.886 36.601 27.886 61.048v25.278z" fill="#48568c"/><path d="m183.387 486.722c0-24.447-9.903-46.128-27.886-61.048-16.471-13.666-39.132-21.192-63.808-21.192-.064 0-.128.004-.192.004v107.514h91.887v-25.278z" fill="#2c3b73"/><path d="m512 512h-183.387v-25.278c0-24.447 9.903-46.128 27.884-61.048 16.471-13.666 39.131-21.192 63.808-21.192 24.676 0 47.337 7.526 63.808 21.192 17.984 14.92 27.887 36.6 27.887 61.048z" fill="#48568c"/><path d="m512 486.722c0-24.447-9.903-46.128-27.886-61.048-16.471-13.666-39.131-21.192-63.807-21.192v107.518h91.693z" fill="#2c3b73"/><path d="m91.693 434.481c-32.641 0-59.195-26.555-59.195-59.195s26.555-59.195 59.195-59.195c32.641 0 59.196 26.555 59.196 59.195s-26.556 59.195-59.196 59.195z" fill="#f9c4b9"/><path d="m91.693 316.091c-.065 0-.128.005-.193.005v118.381c.065 0 .128.005.193.005 32.641 0 59.196-26.555 59.196-59.195s-26.556-59.196-59.196-59.196z" fill="#ffb19e"/><path d="m420.306 434.481c-32.64 0-59.195-26.555-59.195-59.195s26.555-59.195 59.195-59.195c32.641 0 59.196 26.555 59.196 59.195s-26.555 59.195-59.196 59.195z" fill="#f9c4b9"/><path d="m479.502 375.286c0-32.64-26.555-59.195-59.195-59.195v118.391c32.64-.001 59.195-26.555 59.195-59.196z" fill="#ffb19e"/><g><path d="m402.343 512h-292.618l3.496-17.879c6.185-31.626 23.684-58.085 50.607-76.517 25.25-17.286 57.133-26.423 92.204-26.423 35.07 0 66.954 9.137 92.205 26.423 26.924 18.432 44.425 44.891 50.61 76.517z" fill="#48568c"/></g><path d="m398.846 494.121c-6.185-31.626-23.686-58.085-50.61-76.517-25.251-17.286-57.134-26.422-92.203-26.423v120.819h146.309z" fill="#2c3b73"/><g><path d="m256.033 421.182c-49.676 0-90.091-40.415-90.091-90.091s40.415-90.091 90.091-90.091c49.677 0 90.092 40.415 90.092 90.091s-40.415 90.091-90.092 90.091z" fill="#f9c4b9"/></g><path d="m346.125 331.091c0-49.675-40.415-90.091-90.091-90.091v180.182c49.676-.001 90.091-40.416 90.091-90.091z" fill="#ffb19e"/></g></svg>